<svg id="Layer_1" data-name="Layer 1" xmlns="http://www.w3.org/2000/svg" xmlns:xlink="http://www.w3.org/1999/xlink" viewBox="0 0 590.1 620.48">
    <defs>
        <style>.cls-1{stroke:#fff;stroke-miterlimit:10;stroke-width:5px;fill:url(#linear-gradient);}</style>
        <linearGradient id="linear-gradient" x1="2.4" y1="311.75" x2="587.5" y2="311.75" gradientTransform="matrix(1, 0, 0, -1, 0, 622)" gradientUnits="userSpaceOnUse">
            <stop offset="0" stop-color="#0071bc" />
            <stop offset="1" stop-color="#1d84b5" />
        </linearGradient>
    </defs>
    <title>Stackmate 1</title>
    <path class="cls-1" d="M300.5,598.1v-9.6a20.14,20.14,0,0,0-10.6-17.7L64.1,451.1a20.14,20.14,0,0,1-10.6-17.7V229.8a20.06,20.06,0,0,1,20-20,19.33,19.33,0,0,1,9.4,2.4L291,323.4a19.8,19.8,0,0,0,18.9,0L518,212.2a20.09,20.09,0,0,1,27.1,8.2,19.33,19.33,0,0,1,2.4,9.4v235c0,18.4,22.7,27,35,13.3h0a20.33,20.33,0,0,0,5-13.3v-296a19.89,19.89,0,0,0-9.8-17.2L330.7,5.3a20,20,0,0,0-27.4,7,20.31,20.31,0,0,0-2.8,10.2v4.6a20,20,0,0,0,9.7,17.1l159,95.6a19.92,19.92,0,0,1,6.8,27.4,21.26,21.26,0,0,1-7.2,7.1L310.1,264.9a20.06,20.06,0,0,1-19.3.3L31.9,127.1a20.09,20.09,0,0,0-27.1,8.2,20.5,20.5,0,0,0-2.4,9.4V469a20,20,0,0,0,11.1,17.9l258,129a20,20,0,0,0,26.8-9A18,18,0,0,0,300.5,598.1Z" transform="translate(0.1 -0.01)" />
</svg>